<svg width="57" height="35" viewBox="0 0 57 35" fill="none" xmlns="http://www.w3.org/2000/svg">
<path d="M13.3791 22.8359H4.68375V17.3516H13.3791C14.7228 17.3516 15.8166 17.1328 16.6603 16.6953C17.5041 16.2422 18.1213 15.6172 18.5119 14.8203C18.9025 14.0234 19.0978 13.125 19.0978 12.125C19.0978 11.1094 18.9025 10.1641 18.5119 9.28906C18.1213 8.41406 17.5041 7.71094 16.6603 7.17969C15.8166 6.64844 14.7228 6.38281 13.3791 6.38281H7.12125V35H0.0900002V0.875H13.3791C16.0509 0.875 18.34 1.35938 20.2463 2.32812C22.1681 3.28125 23.6369 4.60156 24.6525 6.28906C25.6681 7.97656 26.1759 9.90625 26.1759 12.0781C26.1759 14.2812 25.6681 16.1875 24.6525 17.7969C23.6369 19.4062 22.1681 20.6484 20.2463 21.5234C18.34 22.3984 16.0509 22.8359 13.3791 22.8359ZM44.7069 20.0234H35.9412L35.8944 15.1953H43.2537C44.5506 15.1953 45.6131 15.0312 46.4412 14.7031C47.2694 14.3594 47.8866 13.8672 48.2928 13.2266C48.7147 12.5703 48.9256 11.7734 48.9256 10.8359C48.9256 9.77344 48.7225 8.91406 48.3162 8.25781C47.9256 7.60156 47.3084 7.125 46.4647 6.82812C45.6366 6.53125 44.5662 6.38281 43.2537 6.38281H38.3787V35H31.3475V0.875H43.2537C45.2381 0.875 47.0116 1.0625 48.5741 1.4375C50.1522 1.8125 51.4881 2.38281 52.5819 3.14844C53.6756 3.91406 54.5116 4.88281 55.0897 6.05469C55.6678 7.21094 55.9569 8.58594 55.9569 10.1797C55.9569 11.5859 55.6366 12.8828 54.9959 14.0703C54.3709 15.2578 53.3787 16.2266 52.0194 16.9766C50.6756 17.7266 48.9178 18.1406 46.7459 18.2188L44.7069 20.0234ZM44.4022 35H34.0194L36.7616 29.5156H44.4022C45.6366 29.5156 46.6444 29.3203 47.4256 28.9297C48.2069 28.5234 48.785 27.9766 49.16 27.2891C49.535 26.6016 49.7225 25.8125 49.7225 24.9219C49.7225 23.9219 49.5506 23.0547 49.2069 22.3203C48.8787 21.5859 48.3475 21.0234 47.6131 20.6328C46.8787 20.2266 45.91 20.0234 44.7069 20.0234H37.9334L37.9803 15.1953H46.4178L48.035 17.0938C50.1131 17.0625 51.785 17.4297 53.0506 18.1953C54.3319 18.9453 55.2616 19.9219 55.8397 21.125C56.4334 22.3281 56.7303 23.6172 56.7303 24.9922C56.7303 27.1797 56.2537 29.0234 55.3006 30.5234C54.3475 32.0078 52.9491 33.125 51.1053 33.875C49.2772 34.625 47.0428 35 44.4022 35Z" fill="#25CBFF"/>
</svg>
