<svg viewBox="0 0 48 48" xmlns="http://www.w3.org/2000/svg">
	<path fill="#f0f0f0"
		d="M24 6C25.4834 6 26.9334 6.43987 28.1668 7.26398C29.4002 8.08809 30.3614 9.25943 30.9291 10.6299C31.4968 12.0003 31.6453 13.5083 31.3559 14.9632C31.0665 16.418 30.3522 17.7544 29.3033 18.8033C28.2544 19.8522 26.918 20.5665 25.4632 20.8559C24.0083 21.1453 22.5003 20.9968 21.1299 20.4291C19.7594 19.8614 18.5881 18.9001 17.764 17.6668C16.9399 16.4334 16.5 14.9834 16.5 13.5C16.5 11.5109 17.2902 9.60322 18.6967 8.1967C20.1032 6.79018 22.0109 6 24 6ZM24 3C21.9233 3 19.8932 3.61581 18.1665 4.76957C16.4398 5.92332 15.094 7.5632 14.2993 9.48182C13.5045 11.4004 13.2966 13.5116 13.7018 15.5484C14.1069 17.5852 15.1069 19.4562 16.5754 20.9246C18.0438 22.3931 19.9148 23.3931 21.9516 23.7982C23.9884 24.2034 26.0996 23.9955 28.0182 23.2007C29.9368 22.406 31.5767 21.0602 32.7304 19.3335C33.8842 17.6068 34.5 15.5767 34.5 13.5C34.5 10.7152 33.3938 8.04451 31.4246 6.07538C29.4555 4.10625 26.7848 3 24 3Z" />
	<path fill="#f0f0f0"
		d="M39 45H36V37.5C36 36.5151 35.806 35.5398 35.4291 34.6299C35.0522 33.7199 34.4997 32.8931 33.8033 32.1967C33.1069 31.5003 32.2801 30.9478 31.3701 30.5709C30.4602 30.194 29.4849 30 28.5 30H19.5C17.5109 30 15.6032 30.7902 14.1967 32.1967C12.7902 33.6032 12 35.5109 12 37.5V45H9V37.5C9 34.7152 10.1062 32.0445 12.0754 30.0754C14.0445 28.1062 16.7152 27 19.5 27H28.5C31.2848 27 33.9555 28.1062 35.9246 30.0754C37.8938 32.0445 39 34.7152 39 37.5V45Z" />
</svg>